# This file uses centimeters as units for non-parametric coordinates.

mtllib Ethereum_Logo_Model.mtl
g default
v 0.000001 12.774418 -7.071068
v -7.071068 13.195614 -0.000001
v -0.000000 13.195614 7.071068
v 7.071068 13.195614 0.000000
v 0.000000 25.111654 0.000000
v 0.000000 7.986294 -0.000000
v 0.000001 5.886702 6.333531
v -7.285005 11.703438 0.000001
v -0.000000 5.886702 -6.333531
v 7.285005 11.703438 -0.000000
v 0.000000 0.275799 0.000000
v 0.000000 5.197747 0.000000
vt 0.253812 0.436290
vt 0.253812 0.058146
vt 0.442884 0.436290
vt 0.253812 0.405715
vt 0.064740 0.436290
vt 0.761574 0.658851
vt 0.533529 0.670068
vt 0.761574 0.987422
vt 0.761574 0.670068
vt 0.077174 0.599045
vt 0.251614 0.599045
vt 0.251614 0.936014
vt 0.426054 0.599045
vt 0.251614 0.587135
vt 0.989619 0.670068
vt 0.761574 0.531331
vt 0.759051 0.740321
vt 0.759051 0.715759
vt 0.962754 0.947693
vt 0.254138 0.746915
vt 0.050434 0.954288
vt 0.254138 0.546880
vt 0.555347 0.947693
vt 0.759051 0.540286
vt 0.254138 0.746915
vt 0.457841 0.954288
vt 0.759051 0.740321
vt 0.254138 0.722353
vn 0.000000 -0.805107 0.593130
vn -0.000000 -0.999716 0.023851
vn 0.592807 -0.804669 0.032965
vn -0.642284 0.381136 -0.664987
vn -0.642284 0.381136 -0.664987
vn -0.642284 0.381136 -0.664987
vn -0.652032 0.386921 0.652032
vn -0.652032 0.386921 0.652032
vn -0.652032 0.386921 0.652032
vn 0.652032 0.386921 0.652032
vn 0.652032 0.386921 0.652032
vn 0.652032 0.386921 0.652032
vn 0.642284 0.381136 -0.664986
vn 0.642284 0.381136 -0.664986
vn 0.642284 0.381136 -0.664986
vn 0.000000 -0.828025 -0.560691
vn -0.592807 -0.804669 0.032965
vn 0.000000 0.994136 0.108141
vn 0.000000 1.000000 0.000000
vn -0.666085 0.745875 0.000000
vn -0.761311 -0.485328 0.429955
vn -0.761312 -0.485328 0.429955
vn -0.761312 -0.485328 0.429955
vn -0.761312 -0.485328 -0.429955
vn -0.761312 -0.485328 -0.429955
vn -0.761312 -0.485328 -0.429955
vn 0.761312 -0.485328 -0.429955
vn 0.761312 -0.485328 -0.429955
vn 0.761312 -0.485328 -0.429955
vn 0.761312 -0.485329 0.429954
vn 0.761312 -0.485329 0.429954
vn 0.761312 -0.485329 0.429954
vn -0.000000 0.994136 -0.108141
vn 0.666085 0.745876 -0.000000
s 1
g Ethereum_Logo
usemtl lambert2SG
f 3/1/1 6/2/2 4/3/3
s off
f 1/6/4 2/7/5 5/8/6
f 2/10/7 3/11/8 5/12/9
f 3/9/10 4/15/11 5/8/12
f 4/13/13 1/14/14 5/12/15
s 1
f 1/6/16 4/15/3 6/16/2
f 2/7/17 6/16/2 3/9/1
f 1/4/16 6/2/2 2/5/17
s 2
f 9/17/18 12/18/19 10/19/20
s off
f 7/20/21 8/21/22 11/22/23
f 8/23/24 9/17/25 11/24/26
f 9/25/27 10/26/28 11/22/29
f 10/19/30 7/27/31 11/24/32
s 2
f 7/20/33 10/26/20 12/28/19
f 8/21/34 12/28/19 9/25/18
f 7/27/33 12/18/19 8/23/34
