# This file uses centimeters as units for non-parametric coordinates.

mtllib Unstoppable_Domains_Model.mtl
g default
v 28.291912 51.880707 8.000000
v 28.291916 33.876701 8.000000
v -30.530338 16.383585 8.000000
v 28.291912 51.880707 -8.000000
v 28.291916 33.876701 -8.000000
v -30.530338 16.383585 -8.000000
v 8.000000 20.000000 -10.000000
v -8.000000 20.000000 -10.000000
v -7.608452 17.527864 -10.000000
v -6.472136 15.297718 -10.000000
v -4.702282 13.527864 -10.000000
v -2.472136 12.391548 -10.000000
v 0.000000 12.000000 -10.000000
v 2.472136 12.391548 -10.000000
v 4.702282 13.527864 -10.000000
v 6.472136 15.297718 -10.000000
v 7.608452 17.527864 -10.000000
v 8.000000 20.000000 10.000000
v -8.000000 20.000000 10.000000
v -7.608452 17.527864 10.000000
v -6.472136 15.297718 10.000000
v -4.702282 13.527864 10.000000
v -2.472136 12.391548 10.000000
v 0.000000 12.000000 10.000000
v 2.472136 12.391548 10.000000
v 4.702282 13.527864 10.000000
v 6.472136 15.297718 10.000000
v 7.608452 17.527864 10.000000
v 20.000000 20.000000 10.000000
v -20.000004 20.000000 10.000000
v -19.021135 13.819658 10.000000
v -16.180346 8.244291 10.000000
v -11.755710 3.819654 10.000000
v -6.180343 0.978861 10.000000
v 0.000000 -0.000010 10.000000
v 6.180343 0.978859 10.000000
v 11.755713 3.819651 10.000000
v 16.180351 8.244287 10.000000
v 19.021143 13.819656 10.000000
v 20.000000 20.000000 -10.000000
v -20.000004 20.000000 -10.000000
v -19.021135 13.819658 -10.000000
v -16.180346 8.244291 -10.000000
v -11.755710 3.819654 -10.000000
v -6.180343 0.978861 -10.000000
v 0.000000 -0.000010 -10.000000
v 6.180343 0.978859 -10.000000
v 11.755713 3.819651 -10.000000
v 16.180351 8.244287 -10.000000
v 19.021143 13.819656 -10.000000
v -8.000000 42.222488 -10.000000
v -8.000000 42.222488 10.000000
v -20.000004 35.912071 -10.000000
v -20.000004 35.912071 10.000000
v 8.000000 47.515720 10.000000
v 20.000000 54.253059 10.000000
v 20.000000 54.253059 -10.000000
v 8.000000 47.515720 -10.000000
vt 0.830456 0.024438
vt 0.830456 0.293091
vt 0.986956 0.158765
vt 0.799156 0.313872
vt 0.854800 0.313872
vt 0.910445 0.313872
vt 0.966090 0.313872
vt 0.799156 0.687061
vt 0.854800 0.687061
vt 0.910445 0.687061
vt 0.966090 0.687061
vt 0.549265 0.994365
vt 0.549265 0.492883
vt 0.804327 0.005635
vt 0.059038 0.989026
vt 0.011599 0.989026
vt 0.011599 0.744513
vt 0.059038 0.744513
vt 0.106478 0.989026
vt 0.106478 0.744513
vt 0.153917 0.989026
vt 0.153917 0.744513
vt 0.201356 0.989026
vt 0.201356 0.744513
vt 0.248796 0.989026
vt 0.248796 0.744513
vt 0.296235 0.989026
vt 0.296235 0.744513
vt 0.343675 0.989026
vt 0.343675 0.744513
vt 0.391114 0.989026
vt 0.391114 0.744513
vt 0.438554 0.989026
vt 0.438554 0.744513
vt 0.485993 0.989026
vt 0.485993 0.744513
vt 0.011599 0.500000
vt 0.059038 0.500000
vt 0.106478 0.500000
vt 0.153917 0.500000
vt 0.201356 0.500000
vt 0.248796 0.500000
vt 0.296235 0.500000
vt 0.343675 0.500000
vt 0.391114 0.500000
vt 0.438554 0.500000
vt 0.485993 0.500000
vt 0.011599 0.255487
vt 0.059038 0.255487
vt 0.106478 0.255487
vt 0.153917 0.255487
vt 0.201356 0.255487
vt 0.248796 0.255487
vt 0.296235 0.255487
vt 0.343675 0.255487
vt 0.391114 0.255487
vt 0.438554 0.255487
vt 0.485993 0.255487
vt 0.011599 0.010974
vt 0.059038 0.010974
vt 0.106478 0.010974
vt 0.153917 0.010974
vt 0.201356 0.010974
vt 0.248796 0.010974
vt 0.296235 0.010974
vt 0.343675 0.010974
vt 0.391114 0.010974
vt 0.438554 0.010974
vt 0.485993 0.010974
vt 0.011599 0.744513
vt 0.011599 0.010974
vt 0.011599 0.255487
vt 0.011599 0.500000
vt 0.485993 0.744513
vt 0.485993 0.500000
vt 0.485993 0.255487
vt 0.485993 0.989026
vn 1.000000 0.000000 0.000000
vn 1.000000 0.000000 0.000000
vn 1.000000 0.000000 0.000000
vn 1.000000 0.000000 0.000000
vn 0.285051 -0.958512 0.000000
vn 0.285051 -0.958512 0.000000
vn 0.285051 -0.958512 0.000000
vn 0.285051 -0.958512 0.000000
vn -0.516675 0.856182 0.000000
vn -0.516675 0.856182 0.000000
vn -0.516675 0.856182 0.000000
vn -0.516675 0.856182 0.000000
vn 0.000000 0.000000 1.000000
vn 0.000000 0.000000 1.000000
vn 0.000000 0.000000 1.000000
vn 0.000000 0.000000 -1.000000
vn 0.000000 0.000000 -1.000000
vn 0.000000 0.000000 -1.000000
vn 0.951057 0.309017 0.000000
vn 0.999874 0.015854 0.000000
vn 0.999874 0.015854 0.000000
vn 0.951057 0.309017 0.000000
vn 0.809017 0.587785 0.000000
vn 0.809017 0.587785 0.000000
vn 0.587785 0.809017 0.000000
vn 0.587785 0.809017 0.000000
vn 0.309017 0.951057 0.000000
vn 0.309017 0.951057 0.000000
vn 0.000000 1.000000 0.000000
vn 0.000000 1.000000 0.000000
vn -0.309017 0.951057 0.000000
vn -0.309017 0.951057 0.000000
vn -0.587785 0.809017 0.000000
vn -0.587785 0.809017 0.000000
vn -0.809017 0.587785 0.000000
vn -0.809017 0.587785 0.000000
vn -0.951057 0.309017 0.000000
vn -0.951057 0.309017 0.000000
vn -0.999915 0.013056 0.000000
vn -0.999915 0.013056 0.000000
vn 0.000000 0.000000 1.000000
vn 0.000000 0.000000 1.000000
vn 0.000000 0.000000 1.000000
vn 0.000000 0.000000 1.000000
vn 0.000000 0.000000 1.000000
vn 0.000000 0.000000 1.000000
vn 0.000000 0.000000 1.000000
vn -0.000000 0.000000 1.000000
vn -0.000000 0.000000 1.000000
vn 0.000000 0.000000 1.000000
vn 0.000000 0.000000 1.000000
vn 0.000000 0.000000 1.000000
vn 0.000000 0.000000 1.000000
vn 0.000000 0.000000 1.000000
vn 0.000000 0.000000 1.000000
vn 0.000000 0.000000 1.000000
vn 0.000000 0.000000 1.000000
vn 0.000000 0.000000 1.000000
vn 0.000000 0.000000 1.000000
vn 0.000000 0.000000 1.000000
vn 0.000000 0.000000 1.000000
vn 0.000000 0.000000 1.000000
vn -0.951057 -0.309017 0.000000
vn -0.999020 -0.044264 0.000000
vn -0.999020 -0.044264 0.000000
vn -0.951057 -0.309017 0.000000
vn -0.809017 -0.587785 0.000000
vn -0.809017 -0.587785 0.000000
vn -0.587785 -0.809017 0.000000
vn -0.587785 -0.809017 0.000000
vn -0.309017 -0.951056 0.000000
vn -0.309017 -0.951056 0.000000
vn -0.000000 -1.000000 0.000000
vn -0.000000 -1.000000 0.000000
vn 0.309017 -0.951057 0.000000
vn 0.309017 -0.951057 0.000000
vn 0.587785 -0.809017 0.000000
vn 0.587785 -0.809017 0.000000
vn 0.809017 -0.587785 0.000000
vn 0.809017 -0.587785 0.000000
vn 0.951057 -0.309016 0.000000
vn 0.951057 -0.309016 0.000000
vn 0.999707 -0.024202 0.000000
vn 0.999707 -0.024202 0.000000
vn 0.000000 0.000000 -1.000000
vn 0.000000 0.000000 -1.000000
vn 0.000000 0.000000 -1.000000
vn 0.000000 0.000000 -1.000000
vn 0.000000 0.000000 -1.000000
vn 0.000000 0.000000 -1.000000
vn 0.000000 0.000000 -1.000000
vn 0.000000 0.000000 -1.000000
vn 0.000000 0.000000 -1.000000
vn 0.000000 0.000000 -1.000000
vn 0.000000 0.000000 -1.000000
vn 0.000000 0.000000 -1.000000
vn 0.000000 0.000000 -1.000000
vn 0.000000 0.000000 -1.000000
vn 0.000000 0.000000 -1.000000
vn 0.000000 0.000000 -1.000000
vn -0.000000 0.000000 -1.000000
vn -0.000000 0.000000 -1.000000
vn -0.000000 0.000000 -1.000000
vn -0.000000 0.000000 -1.000000
vn 0.000000 0.000000 -1.000000
vn 0.000000 0.000000 -1.000000
vn -0.465436 0.885082 0.000000
vn -0.465436 0.885082 0.000000
vn -0.465436 0.885082 0.000000
vn -0.465436 0.885082 0.000000
vn -0.489562 0.871968 0.000000
vn -0.489562 0.871968 0.000000
vn -0.489562 0.871968 0.000000
vn -0.489562 0.871968 0.000000
vn 1.000000 0.000000 0.000000
vn 1.000000 0.000000 0.000000
vn 0.000000 0.000000 -1.000000
vn 0.000000 0.000000 -1.000000
vn -1.000000 0.000000 0.000000
vn -1.000000 0.000000 0.000000
vn 0.000000 0.000000 1.000000
vn 0.000000 0.000000 1.000000
vn 0.000000 0.000000 1.000000
vn 0.000000 0.000000 1.000000
vn 1.000000 0.000000 0.000000
vn 1.000000 0.000000 0.000000
vn 0.000000 0.000000 -1.000000
vn 0.000000 0.000000 -1.000000
vn -1.000000 0.000000 0.000000
vn -1.000000 0.000000 0.000000
s off
g Unstoppable_Domains_Logo
usemtl lambert2SG
f 1/4/1 2/5/2 5/9/3 4/8/4
f 2/5/5 3/6/6 6/10/7 5/9/8
f 3/6/9 1/7/10 4/11/11 6/10/12
f 1/1/13 3/3/14 2/2/15
f 4/12/16 5/13/17 6/14/18
s 1
f 9/15/19 8/16/20 19/17/21 20/18/22
f 10/19/23 9/15/19 20/18/22 21/20/24
f 11/21/25 10/19/23 21/20/24 22/22/26
f 12/23/27 11/21/25 22/22/26 23/24/28
f 13/25/29 12/23/27 23/24/28 24/26/30
f 14/27/31 13/25/29 24/26/30 25/28/32
f 15/29/33 14/27/31 25/28/32 26/30/34
f 16/31/35 15/29/33 26/30/34 27/32/36
f 17/33/37 16/31/35 27/32/36 28/34/38
f 7/35/39 17/33/37 28/34/38 18/36/40
s 2
f 20/18/41 19/17/42 30/37/43 31/38/44
f 21/20/45 20/18/41 31/38/44 32/39/46
f 22/22/47 21/20/45 32/39/46 33/40/48
f 23/24/49 22/22/47 33/40/48 34/41/50
f 24/26/51 23/24/49 34/41/50 35/42/52
f 25/28/53 24/26/51 35/42/52 36/43/54
f 26/30/55 25/28/53 36/43/54 37/44/56
f 27/32/57 26/30/55 37/44/56 38/45/58
f 28/34/59 27/32/57 38/45/58 39/46/60
f 18/36/61 28/34/59 39/46/60 29/47/62
s 3
f 31/38/63 30/37/64 41/48/65 42/49/66
f 32/39/67 31/38/63 42/49/66 43/50/68
f 33/40/69 32/39/67 43/50/68 44/51/70
f 34/41/71 33/40/69 44/51/70 45/52/72
f 35/42/73 34/41/71 45/52/72 46/53/74
f 36/43/75 35/42/73 46/53/74 47/54/76
f 37/44/77 36/43/75 47/54/76 48/55/78
f 38/45/79 37/44/77 48/55/78 49/56/80
f 39/46/81 38/45/79 49/56/80 50/57/82
f 29/47/83 39/46/81 50/57/82 40/58/84
s 4
f 42/49/85 41/48/86 8/59/87 9/60/88
f 43/50/89 42/49/85 9/60/88 10/61/90
f 44/51/91 43/50/89 10/61/90 11/62/92
f 45/52/93 44/51/91 11/62/92 12/63/94
f 46/53/95 45/52/93 12/63/94 13/64/96
f 47/54/97 46/53/95 13/64/96 14/65/98
f 48/55/99 47/54/97 14/65/98 15/66/100
f 49/56/101 48/55/99 15/66/100 16/67/102
f 50/57/103 49/56/101 16/67/102 17/68/104
f 40/58/105 50/57/103 17/68/104 7/69/106
s off
f 52/70/107 51/71/108 53/72/109 54/73/110
f 55/74/111 56/75/112 57/76/113 58/77/114
s 1
f 19/17/21 8/59/20 51/71/115 52/70/116
s 4
f 8/59/87 41/48/86 53/72/117 51/71/118
s 3
f 41/48/65 30/37/64 54/73/119 53/72/120
s 2
f 30/37/43 19/17/42 52/70/121 54/73/122
f 18/36/61 29/47/62 56/75/123 55/74/124
s 3
f 29/47/83 40/58/84 57/76/125 56/75/126
s 4
f 40/58/105 7/35/106 58/77/127 57/76/128
s 1
f 7/35/39 18/36/40 55/74/129 58/77/130
